<?xml version="1.0" encoding="utf-8"?>
<!-- Generator: Adobe Illustrator 14.0.0, SVG Export Plug-In . SVG Version: 6.00 Build 43363)  -->
<!DOCTYPE svg PUBLIC "-//W3C//DTD SVG 1.1//EN" "http://www.w3.org/Graphics/SVG/1.1/DTD/svg11.dtd">
<svg version="1.1" id="Ebene_1" xmlns="http://www.w3.org/2000/svg" xmlns:xlink="http://www.w3.org/1999/xlink" x="0px" y="0px"
	 width="288.213px" height="90px" viewBox="0 0 288.213 90" enable-background="new 0 0 288.213 90" xml:space="preserve">
<path fill="#D7D9DA" d="M169.667,17.815c-17.354,14.086-44.479,14.8-49.738,14.8c-0.416,0-0.643-0.005-0.643-0.005l-0.154-0.002
	v5.538h0.152c31.09,0,50.396-19.906,50.586-20.106L169.667,17.815z"/>
<path fill="#D7D9DA" d="M137.193,0.092V0h-5.532v0.151c0,30.238,18.821,49.324,20.039,50.523v0.096h5.536v-0.15
	C157.236,20.388,138.421,1.304,137.193,0.092z M137.189,0.589c14.063,17.693,14.521,45.779,14.517,49.593
	C137.637,32.488,137.18,4.406,137.189,0.589z"/>
<path fill="#9B9B9D" d="M20.068,54.807c-1.369-2.564-3.957-4.108-7.102-4.229c-0.139-0.002-4.35-0.005-4.393-0.005
	c-4.923,0-8.361,3.536-8.562,8.827L0,89.752h6.636V79.318c0.623,0.129,1.271,0.19,1.938,0.19c0.114,0,3.99,0,4.492-0.006
	c3.098-0.146,5.649-1.688,7.003-4.229c0.72-1.359,1.066-3.256,1.066-5.789V60.6C21.135,58.062,20.79,56.168,20.068,54.807z
	 M8.574,72.762c-0.807,0-1.758-0.234-1.938-2.045V59.725c0.042-2.148,1.126-2.398,1.938-2.398c0.167,0,3.82,0.008,4.299,0.016
	c1.079,0.131,1.626,0.938,1.626,2.408v11.016c0,0.834-0.281,1.846-1.62,1.98C12.121,72.754,8.704,72.762,8.574,72.762z"/>
<path fill="#9B9B9D" d="M63.849,50.575l-4.015-0.005c-3.335,0-6.069,1.543-7.505,4.234c-0.715,1.356-1.064,3.256-1.064,5.795
	l0.002,18.653H57.9V59.75c0-1.605,0.659-2.418,1.96-2.424h3.993c0.815,0.012,1.903,0.289,1.903,2.527v19.402h6.628V59.852
	C72.385,54.32,68.954,50.59,63.849,50.575z"/>
<path fill="#9B9B9D" d="M45.928,56.105l-0.08-0.229c-0.023-0.069-0.046-0.144-0.068-0.194c-0.128-0.354-0.25-0.627-0.377-0.873
	c-0.11-0.205-0.229-0.399-0.421-0.694c-0.098-0.142-0.197-0.279-0.298-0.414c-1.488-1.979-3.786-3.093-6.483-3.127h-3.87
	c-2.491,0-4.659,0.896-6.263,2.604c-1.471,1.562-2.316,3.82-2.316,6.199v0.664h6.582l0.049-0.604
	c0.167-1.869,1.131-2.108,1.949-2.108c0.155,0,3.576,0.004,3.818,0.01c1.393,0.115,1.686,1.146,1.686,1.99v2.801h-5.292
	c-5.45,0.021-9.254,3.549-9.254,8.576c0,3.342,1.588,6.079,4.353,7.514c1.208,0.617,2.804,0.964,4.88,1.05
	c0.341,0.012,4.582,0.015,4.621,0.015h7.336V59.697C46.48,58.411,46.29,57.2,45.928,56.105z M33.844,68.105h5.991v5.039h-5.991
	c-1.61,0-2.428-0.849-2.428-2.521C31.417,68.956,32.234,68.105,33.844,68.105z"/>
<path fill="#009584" d="M84.591,50.484v-5.379h-6.637v27.511c0,3.252,2.049,6.534,5.979,6.534h0.658V57.245l5.414-0.082v-6.679
	H84.591z"/>
<path fill="#009584" d="M169.762,12.555c-31.093,0-50.396,19.906-50.587,20.106l0.202,0.221
	c17.35-14.083,44.475-14.799,49.739-14.799c0.42,0,0.641,0.004,0.643,0.004l0.152,0.006v-5.538H169.762z"/>
<path fill="#009584" d="M134.212,67.383v3.311c-0.18,1.83-1.129,2.068-1.94,2.068h-4.055c-1.236-0.021-1.885-0.713-1.885-1.998
	V59.749c0-1.582,0.63-2.397,1.871-2.424l4.066-0.003c0.812,0,1.891,0.253,1.94,2.375v2.408h6.636l0.004-2.26l-0.004-0.238
	c-0.103-5.403-3.551-9.037-8.576-9.037l-4.08,0.005c-3.297,0.021-6.004,1.563-7.432,4.231c-0.718,1.356-1.064,3.256-1.064,5.793
	v8.885c0,2.535,0.35,4.431,1.064,5.793c1.418,2.662,4.131,4.203,7.442,4.231h4.065c2.489,0,4.65-0.897,6.262-2.6
	c1.475-1.563,2.316-3.828,2.316-6.205l-0.005-3.326L134.212,67.383L134.212,67.383z"/>
<path fill="#009584" d="M114.846,67.75v-8.109c0-5.256-3.455-8.986-8.412-9.067l-4.162-0.003c-3.336,0-6.071,1.544-7.516,4.238
	c-0.714,1.361-1.061,3.256-1.061,5.793v8.883c0,2.535,0.349,4.432,1.066,5.793c1.436,2.689,4.174,4.232,7.508,4.232h4.178
	c2.416-0.041,4.518-0.938,6.087-2.6c1.473-1.562,2.317-3.826,2.317-6.203v-0.66h-6.58l-0.056,0.602
	c-0.159,1.813-1.059,2.082-1.803,2.111l-4.142,0.002c-1.271,0-1.939-0.695-1.939-2.002v-3.01H114.846L114.846,67.75z
	 M102.268,57.322l4.119,0.005c1.213,0.049,1.824,0.866,1.824,2.422v2.424h-7.884v-2.424
	C100.327,58.141,100.979,57.325,102.268,57.322z"/>
<g>
	<rect x="172.79" y="64.561" fill="none" width="167.5" height="34"/>
	<path fill="#9C9E9F" d="M183.332,79.513l-1.029-3.003h-5.9l-1.029,3.003h-2.415l5.481-14.952h1.826l5.481,14.952H183.332z
		 M179.405,67.941l-2.331,6.637h4.599L179.405,67.941z"/>
	<path fill="#9C9E9F" d="M194.042,79.513v-1.071c-0.729,0.798-1.673,1.197-2.835,1.197c-1.078,0-1.953-0.322-2.625-0.966
		c-0.393-0.378-0.669-0.812-0.829-1.302c-0.161-0.49-0.242-1.058-0.242-1.701v-6.805h2.143v6.489c0,0.784,0.199,1.376,0.599,1.774
		c0.398,0.399,0.913,0.599,1.543,0.599c0.644,0,1.173-0.199,1.586-0.599c0.412-0.398,0.619-0.99,0.619-1.774v-6.489h2.142v10.647
		H194.042z"/>
	<path fill="#9C9E9F" d="M202.714,79.513c-0.938,0-1.659-0.287-2.163-0.861c-0.504-0.573-0.756-1.273-0.756-2.1v-5.859h-1.218
		v-1.638h1.218V65.82h2.142v3.234h2.059v1.638h-2.059v5.754c0,0.826,0.392,1.239,1.177,1.239h0.882v1.827H202.714z"/>
	<path fill="#9C9E9F" d="M214.726,76.625c-0.182,0.665-0.511,1.25-0.986,1.754c-0.378,0.378-0.833,0.683-1.365,0.913
		c-0.532,0.231-1.142,0.347-1.827,0.347c-0.687,0-1.291-0.112-1.816-0.336s-0.977-0.532-1.354-0.924
		c-0.477-0.504-0.806-1.089-0.987-1.754s-0.272-1.48-0.272-2.446s0.091-1.781,0.272-2.446S206.9,70.49,207.376,70
		c0.378-0.392,0.829-0.7,1.354-0.924c0.525-0.225,1.13-0.337,1.816-0.337c0.686,0,1.295,0.112,1.827,0.337
		c0.532,0.224,0.987,0.532,1.365,0.924c0.476,0.49,0.805,1.067,0.986,1.732c0.183,0.665,0.273,1.48,0.273,2.446
		S214.909,75.96,214.726,76.625z M212.71,72.415c-0.098-0.477-0.294-0.861-0.588-1.155c-0.406-0.406-0.932-0.609-1.575-0.609
		c-0.63,0-1.148,0.203-1.554,0.609c-0.294,0.294-0.49,0.679-0.588,1.155c-0.099,0.476-0.147,1.063-0.147,1.764
		s0.049,1.288,0.147,1.764c0.098,0.477,0.294,0.861,0.588,1.155c0.42,0.42,0.938,0.63,1.554,0.63c0.63,0,1.155-0.21,1.575-0.63
		c0.294-0.294,0.49-0.679,0.588-1.155c0.098-0.476,0.147-1.063,0.147-1.764S212.808,72.891,212.71,72.415z"/>
	<path fill="#9C9E9F" d="M230.875,79.513v-6.489c0-0.798-0.196-1.393-0.588-1.785c-0.392-0.392-0.91-0.588-1.554-0.588
		c-0.616,0-1.138,0.196-1.564,0.588c-0.428,0.393-0.641,0.952-0.641,1.681v6.594h-2.142v-6.489c0-0.798-0.196-1.393-0.589-1.785
		c-0.392-0.392-0.91-0.588-1.554-0.588s-1.173,0.2-1.585,0.599c-0.413,0.399-0.62,0.991-0.62,1.774v6.489h-2.142V68.865h2.1v1.071
		c0.35-0.392,0.773-0.689,1.271-0.893c0.497-0.202,1.019-0.305,1.564-0.305c1.345,0,2.353,0.519,3.024,1.555
		c0.854-1.036,1.967-1.555,3.339-1.555c0.546,0,1.05,0.084,1.512,0.252c0.462,0.169,0.854,0.406,1.176,0.715
		c0.757,0.742,1.135,1.742,1.135,3.003v6.804H230.875z"/>
	<path fill="#9C9E9F" d="M242.046,79.513v-0.966c-0.392,0.392-0.798,0.672-1.218,0.84s-0.959,0.252-1.617,0.252
		c-1.26,0-2.212-0.322-2.855-0.966c-0.561-0.588-0.84-1.351-0.84-2.289c0-0.924,0.314-1.666,0.944-2.227
		c0.63-0.56,1.54-0.84,2.73-0.84h2.813v-0.756c0-0.686-0.186-1.189-0.556-1.512c-0.371-0.322-0.963-0.483-1.775-0.483
		c-0.588,0-1.05,0.077-1.386,0.231s-0.65,0.42-0.944,0.798l-1.407-1.323c0.489-0.573,1.021-0.973,1.596-1.196
		c0.574-0.225,1.315-0.337,2.226-0.337c2.927,0,4.39,1.219,4.39,3.654v7.119H242.046z M242.004,74.809h-2.499
		c-1.273,0-1.91,0.512-1.91,1.533c0,1.008,0.65,1.512,1.952,1.512c0.463,0,0.844-0.038,1.145-0.115
		c0.302-0.077,0.585-0.241,0.851-0.493c0.308-0.309,0.462-0.833,0.462-1.575V74.809z"/>
	<path fill="#9C9E9F" d="M250.615,79.513c-0.938,0-1.659-0.287-2.163-0.861c-0.504-0.573-0.756-1.273-0.756-2.1v-5.859h-1.218
		v-1.638h1.218V65.82h2.142v3.234h2.059v1.638h-2.059v5.754c0,0.826,0.392,1.239,1.177,1.239h0.882v1.827H250.615z"/>
	<path fill="#9C9E9F" d="M254.562,66.766v-2.268h2.269v2.268H254.562z M254.625,79.513V68.865h2.142v10.647H254.625z"/>
	<path fill="#9C9E9F" d="M268.275,76.625c-0.182,0.665-0.511,1.25-0.986,1.754c-0.378,0.378-0.833,0.683-1.365,0.913
		c-0.532,0.231-1.142,0.347-1.827,0.347c-0.687,0-1.291-0.112-1.816-0.336s-0.977-0.532-1.354-0.924
		c-0.477-0.504-0.806-1.089-0.987-1.754s-0.272-1.48-0.272-2.446s0.091-1.781,0.272-2.446s0.511-1.242,0.987-1.732
		c0.378-0.392,0.829-0.7,1.354-0.924c0.525-0.225,1.13-0.337,1.816-0.337c0.686,0,1.295,0.112,1.827,0.337
		c0.532,0.224,0.987,0.532,1.365,0.924c0.476,0.49,0.805,1.067,0.986,1.732c0.183,0.665,0.273,1.48,0.273,2.446
		S268.458,75.96,268.275,76.625z M266.259,72.415c-0.098-0.477-0.294-0.861-0.588-1.155c-0.406-0.406-0.932-0.609-1.575-0.609
		c-0.63,0-1.148,0.203-1.554,0.609c-0.294,0.294-0.49,0.679-0.588,1.155c-0.099,0.476-0.147,1.063-0.147,1.764
		s0.049,1.288,0.147,1.764c0.098,0.477,0.294,0.861,0.588,1.155c0.42,0.42,0.938,0.63,1.554,0.63c0.63,0,1.155-0.21,1.575-0.63
		c0.294-0.294,0.49-0.679,0.588-1.155c0.098-0.476,0.147-1.063,0.147-1.764S266.357,72.891,266.259,72.415z"/>
	<path fill="#9C9E9F" d="M277.935,79.513v-6.489c0-0.798-0.196-1.393-0.589-1.785c-0.392-0.392-0.91-0.588-1.554-0.588
		s-1.173,0.2-1.585,0.599c-0.413,0.399-0.62,0.991-0.62,1.774v6.489h-2.142V68.865h2.1v1.071c0.742-0.798,1.688-1.197,2.835-1.197
		c1.078,0,1.953,0.322,2.625,0.967c0.392,0.378,0.669,0.812,0.83,1.302c0.16,0.49,0.241,1.057,0.241,1.701v6.804H277.935z"/>
</g>
</svg>
